<mxfile host="app.diagrams.net" agent="Mozilla/5.0 (Windows NT 10.0; Win64; x64) AppleWebKit/537.36 (KHTML, like Gecko) Chrome/128.0.0.0 Safari/537.36" version="24.7.8">
  <diagram name="Page-1" id="MXl6Tumx1ijHAVCfZXqQ">
    <mxGraphModel dx="700" dy="377" grid="1" gridSize="10" guides="1" tooltips="1" connect="1" arrows="1" fold="1" page="1" pageScale="1" pageWidth="827" pageHeight="1169" math="0" shadow="0">
      <root>
        <mxCell id="0" />
        <mxCell id="1" parent="0" />
        <mxCell id="5t76B7EbX6aRDEqoAtoZ-12" style="rounded=0;orthogonalLoop=1;jettySize=auto;html=1;exitX=0.25;exitY=0;exitDx=0;exitDy=0;endArrow=none;endFill=0;" edge="1" parent="1" source="5t76B7EbX6aRDEqoAtoZ-1" target="5t76B7EbX6aRDEqoAtoZ-11">
          <mxGeometry relative="1" as="geometry" />
        </mxCell>
        <mxCell id="5t76B7EbX6aRDEqoAtoZ-18" style="edgeStyle=orthogonalEdgeStyle;rounded=0;orthogonalLoop=1;jettySize=auto;html=1;exitX=1;exitY=0.5;exitDx=0;exitDy=0;entryX=0;entryY=0.5;entryDx=0;entryDy=0;endArrow=none;endFill=0;" edge="1" parent="1" source="5t76B7EbX6aRDEqoAtoZ-1" target="5t76B7EbX6aRDEqoAtoZ-4">
          <mxGeometry relative="1" as="geometry" />
        </mxCell>
        <mxCell id="5t76B7EbX6aRDEqoAtoZ-1" value="Lock" style="rounded=0;whiteSpace=wrap;html=1;" vertex="1" parent="1">
          <mxGeometry x="280" y="910" width="120" height="40" as="geometry" />
        </mxCell>
        <mxCell id="5t76B7EbX6aRDEqoAtoZ-2" value="User" style="rounded=0;whiteSpace=wrap;html=1;" vertex="1" parent="1">
          <mxGeometry x="500" y="910" width="120" height="40" as="geometry" />
        </mxCell>
        <mxCell id="5t76B7EbX6aRDEqoAtoZ-19" style="edgeStyle=orthogonalEdgeStyle;rounded=0;orthogonalLoop=1;jettySize=auto;html=1;exitX=1;exitY=0.5;exitDx=0;exitDy=0;entryX=0;entryY=0.5;entryDx=0;entryDy=0;endArrow=none;endFill=0;" edge="1" parent="1" source="5t76B7EbX6aRDEqoAtoZ-4" target="5t76B7EbX6aRDEqoAtoZ-2">
          <mxGeometry relative="1" as="geometry" />
        </mxCell>
        <mxCell id="5t76B7EbX6aRDEqoAtoZ-4" value="by" style="rhombus;whiteSpace=wrap;html=1;" vertex="1" parent="1">
          <mxGeometry x="413.9999999999999" y="900" width="70" height="60" as="geometry" />
        </mxCell>
        <mxCell id="5t76B7EbX6aRDEqoAtoZ-9" style="rounded=0;orthogonalLoop=1;jettySize=auto;html=1;exitX=0.5;exitY=1;exitDx=0;exitDy=0;entryX=0;entryY=0;entryDx=0;entryDy=0;endArrow=none;endFill=0;" edge="1" parent="1" source="5t76B7EbX6aRDEqoAtoZ-8" target="5t76B7EbX6aRDEqoAtoZ-1">
          <mxGeometry relative="1" as="geometry" />
        </mxCell>
        <mxCell id="5t76B7EbX6aRDEqoAtoZ-8" value="&lt;u&gt;Id&lt;/u&gt;" style="ellipse;whiteSpace=wrap;html=1;" vertex="1" parent="1">
          <mxGeometry x="230" y="840" width="38.5" height="20" as="geometry" />
        </mxCell>
        <mxCell id="5t76B7EbX6aRDEqoAtoZ-11" value="LockedEntityId" style="ellipse;whiteSpace=wrap;html=1;" vertex="1" parent="1">
          <mxGeometry x="200" y="790" width="120" height="40" as="geometry" />
        </mxCell>
        <mxCell id="5t76B7EbX6aRDEqoAtoZ-14" style="rounded=0;orthogonalLoop=1;jettySize=auto;html=1;exitX=0.5;exitY=1;exitDx=0;exitDy=0;entryX=0.647;entryY=-0.022;entryDx=0;entryDy=0;endArrow=none;endFill=0;entryPerimeter=0;" edge="1" parent="1" source="5t76B7EbX6aRDEqoAtoZ-13" target="5t76B7EbX6aRDEqoAtoZ-1">
          <mxGeometry relative="1" as="geometry" />
        </mxCell>
        <mxCell id="5t76B7EbX6aRDEqoAtoZ-13" value="LockedEntityType" style="ellipse;whiteSpace=wrap;html=1;" vertex="1" parent="1">
          <mxGeometry x="320" y="770" width="120" height="40" as="geometry" />
        </mxCell>
        <mxCell id="5t76B7EbX6aRDEqoAtoZ-16" style="rounded=0;orthogonalLoop=1;jettySize=auto;html=1;exitX=0.5;exitY=1;exitDx=0;exitDy=0;entryX=1;entryY=0;entryDx=0;entryDy=0;endArrow=none;endFill=0;" edge="1" parent="1" source="5t76B7EbX6aRDEqoAtoZ-15" target="5t76B7EbX6aRDEqoAtoZ-1">
          <mxGeometry relative="1" as="geometry" />
        </mxCell>
        <mxCell id="5t76B7EbX6aRDEqoAtoZ-15" value="Date" style="ellipse;whiteSpace=wrap;html=1;" vertex="1" parent="1">
          <mxGeometry x="390" y="835" width="60" height="30" as="geometry" />
        </mxCell>
        <mxCell id="5t76B7EbX6aRDEqoAtoZ-21" value="1" style="text;html=1;align=center;verticalAlign=middle;whiteSpace=wrap;rounded=0;" vertex="1" parent="1">
          <mxGeometry x="490" y="910" width="10" height="20" as="geometry" />
        </mxCell>
        <mxCell id="5t76B7EbX6aRDEqoAtoZ-22" value="1" style="text;html=1;align=center;verticalAlign=middle;whiteSpace=wrap;rounded=0;" vertex="1" parent="1">
          <mxGeometry x="400" y="910" width="12" height="20" as="geometry" />
        </mxCell>
      </root>
    </mxGraphModel>
  </diagram>
</mxfile>
